Coordinates
version=1
nRows=9
nColumns=24
inDegrees=yes

Units are S.I. units (second, meters, Newtons, ...)
Angles are in degrees.

endheader
time	pelvis_tilt	pelvis_list	pelvis_rotation	pelvis_tx	pelvis_ty	pelvis_tz	hip_flexion_r	hip_adduction_r	hip_rotation_r	knee_angle_r	ankle_angle_r	subtalar_angle_r	mtp_angle_r	hip_flexion_l	hip_adduction_l	hip_rotation_l	knee_angle_l	ankle_angle_l	subtalar_angle_l	mtp_angle_l	lumbar_extension	lumbar_bending	lumbar_rotation
      0.47100000	     -1.28153256	      5.14843814	     -1.39186141	     -0.81114271	      1.05406425	      0.30732039	     25.26538187	     -1.41213648	     -6.61399965	     -4.90367742	      7.74509766	     -1.21415821	     -0.00116467	     -9.66792446	      9.92052343	     -3.28946431	    -10.18766891	     13.45943659	      4.57390955	     -0.01550966	      4.50888907	     -3.96788338	     -1.95205892
      0.47516667	     -1.29811952	      5.15369608	     -1.35004562	     -0.80517181	      1.05363322	      0.30731216	     25.19271323	     -1.37039316	     -6.50795269	     -5.07714815	      7.74676371	     -1.20317443	     -0.00445680	     -9.78452152	      9.88739051	     -3.29914454	    -10.62765622	     13.42056459	      4.55533821	     -0.03814573	      4.61047652	     -3.94337145	     -1.99466339
      0.47933333	     -1.30579006	      5.10578550	     -1.36528280	     -0.79897256	      1.05323341	      0.30753696	     25.07277354	     -1.23508674	     -6.17857623	     -5.25709941	      7.85881337	     -1.18855190	     -0.01994941	     -9.90253944	      9.77930987	     -3.51313769	    -11.09111459	     13.28821990	      4.75160634	     -0.14667773	      4.73486557	     -3.94982097	     -2.20936277
      0.48350000	     -1.28473203	      5.13003262	     -1.33685213	     -0.79300686	      1.05286683	      0.30749739	     24.98667867	     -1.22177587	     -6.06299634	     -5.57868615	      7.83432313	     -1.18411703	     -0.02236452	    -10.01235405	      9.76106947	     -3.52311558	    -11.62018606	     13.23730454	      4.80943955	     -0.16455618	      4.80688166	     -3.90882106	     -2.23555134
      0.48766667	     -1.26693704	      5.12303758	     -1.37867604	     -0.78692805	      1.05249515	      0.30790274	     24.87129616	     -1.10901889	     -5.63646068	     -5.88413688	      7.83764964	     -1.20725062	     -0.03590683	    -10.07150058	      9.66753765	     -3.92883863	    -12.22595120	     13.03725820	      5.43941676	     -0.26566413	      4.73404198	     -3.97893195	     -2.38556355
      0.49183333	     -1.15854887	      5.09803750	     -1.45033777	     -0.78079477	      1.05227258	      0.30830825	     24.65359429	     -0.97713440	     -5.20624579	     -6.20948810	      7.71977236	     -1.49549946	     -0.05903041	    -10.22147578	      9.55617944	     -4.29340292	    -12.86401324	     13.06003219	      6.23465461	     -0.40474994	      4.79638062	     -3.97785409	     -2.49448410
      0.49600000	     -1.14157028	      5.09280514	     -1.39682827	     -0.77470439	      1.05198763	      0.30840636	     24.53741203	     -0.93088161	     -4.95346730	     -6.58204703	      7.59906982	     -1.62174404	     -0.06854295	    -10.23312262	      9.45436551	     -4.43795069	    -13.58645686	     12.95224714	      6.49180436	     -0.46927409	      4.74140901	     -3.93220320	     -2.50928340
      0.50016667	     -1.06431683	      5.09415134	     -1.36487999	     -0.76858785	      1.05179334	      0.30833884	     24.37222454	     -0.91237154	     -4.79199372	     -7.01081085	      7.53116228	     -1.61957640	     -0.06897595	    -10.29909713	      9.37973554	     -4.46345796	    -14.32742912	     12.85803449	      6.55976841	     -0.47851709	      4.85406829	     -3.87473197	     -2.51196393
      0.50433333	     -0.96094878	      5.03791679	     -1.50647513	     -0.76235722	      1.05159744	      0.30925629	     24.12081677	     -0.67911698	     -4.03531569	     -7.31062573	      7.13784090	     -2.41281592	     -0.08660016	    -10.32779599	      9.16550513	     -5.16194364	    -15.18209896	     12.75317909	      7.89833389	     -0.60029393	      4.79205061	     -3.86794357	     -2.51551442
